solid  Processed by ADMesh version 0.98.1
  facet normal  0.00000000E+00  0.00000000E+00 -1.00000000E+00
    outer loop
      vertex  1.00000000E+00 -4.00000006E-01  9.00000036E-01
      vertex  6.00000024E-01 -4.00000006E-01  9.00000036E-01
      vertex  1.00000000E+00  4.00000006E-01  9.00000036E-01
    endloop
  endfacet
  facet normal -0.00000000E+00  0.00000000E+00 -1.00000000E+00
    outer loop
      vertex  1.00000000E+00  4.00000006E-01  9.00000036E-01
      vertex  6.00000024E-01 -4.00000006E-01  9.00000036E-01
      vertex  6.00000024E-01  4.00000006E-01  9.00000036E-01
    endloop
  endfacet
  facet normal  1.00000000E+00 -0.00000000E+00  0.00000000E+00
    outer loop
      vertex  1.00000000E+00 -4.00000006E-01  1.00000000E+00
      vertex  1.00000000E+00 -4.00000006E-01  9.00000036E-01
      vertex  1.00000000E+00  4.00000006E-01  1.00000000E+00
    endloop
  endfacet
  facet normal  1.00000000E+00  0.00000000E+00  0.00000000E+00
    outer loop
      vertex  1.00000000E+00  4.00000006E-01  1.00000000E+00
      vertex  1.00000000E+00 -4.00000006E-01  9.00000036E-01
      vertex  1.00000000E+00  4.00000006E-01  9.00000036E-01
    endloop
  endfacet
  facet normal  0.00000000E+00  0.00000000E+00  1.00000000E+00
    outer loop
      vertex  6.00000024E-01 -4.00000006E-01  1.00000000E+00
      vertex  1.00000000E+00 -4.00000006E-01  1.00000000E+00
      vertex  6.00000024E-01  4.00000006E-01  1.00000000E+00
    endloop
  endfacet
  facet normal -0.00000000E+00  0.00000000E+00  1.00000000E+00
    outer loop
      vertex  6.00000024E-01  4.00000006E-01  1.00000000E+00
      vertex  1.00000000E+00 -4.00000006E-01  1.00000000E+00
      vertex  1.00000000E+00  4.00000006E-01  1.00000000E+00
    endloop
  endfacet
  facet normal -1.00000000E+00  0.00000000E+00  0.00000000E+00
    outer loop
      vertex  6.00000024E-01 -4.00000006E-01  9.00000036E-01
      vertex  6.00000024E-01 -4.00000006E-01  1.00000000E+00
      vertex  6.00000024E-01  4.00000006E-01  9.00000036E-01
    endloop
  endfacet
  facet normal -1.00000000E+00  0.00000000E+00  0.00000000E+00
    outer loop
      vertex  6.00000024E-01  4.00000006E-01  9.00000036E-01
      vertex  6.00000024E-01 -4.00000006E-01  1.00000000E+00
      vertex  6.00000024E-01  4.00000006E-01  1.00000000E+00
    endloop
  endfacet
  facet normal  0.00000000E+00 -1.00000000E+00  0.00000000E+00
    outer loop
      vertex  6.00000024E-01 -4.00000006E-01  9.00000036E-01
      vertex  1.00000000E+00 -4.00000006E-01  9.00000036E-01
      vertex  1.00000000E+00 -4.00000006E-01  1.00000000E+00
    endloop
  endfacet
  facet normal  0.00000000E+00 -1.00000000E+00  0.00000000E+00
    outer loop
      vertex  6.00000024E-01 -4.00000006E-01  9.00000036E-01
      vertex  1.00000000E+00 -4.00000006E-01  1.00000000E+00
      vertex  6.00000024E-01 -4.00000006E-01  1.00000000E+00
    endloop
  endfacet
  facet normal  0.00000000E+00  1.00000000E+00 -0.00000000E+00
    outer loop
      vertex  1.00000000E+00  4.00000006E-01  9.00000036E-01
      vertex  6.00000024E-01  4.00000006E-01  9.00000036E-01
      vertex  1.00000000E+00  4.00000006E-01  1.00000000E+00
    endloop
  endfacet
  facet normal  0.00000000E+00  1.00000000E+00  0.00000000E+00
    outer loop
      vertex  1.00000000E+00  4.00000006E-01  1.00000000E+00
      vertex  6.00000024E-01  4.00000006E-01  9.00000036E-01
      vertex  6.00000024E-01  4.00000006E-01  1.00000000E+00
    endloop
  endfacet
endsolid  Processed by ADMesh version 0.98.1
