solid  Processed by ADMesh version 0.98.1
  facet normal  0.00000000E+00  0.00000000E+00 -1.00000000E+00
    outer loop
      vertex -5.50000012E-01  1.53080857E-17 -2.50000000E-01
      vertex -6.50000036E-01  1.53080857E-17 -2.50000000E-01
      vertex -5.50000012E-01  4.00000006E-01 -2.50000000E-01
    endloop
  endfacet
  facet normal -0.00000000E+00  0.00000000E+00 -1.00000000E+00
    outer loop
      vertex -5.50000012E-01  4.00000006E-01 -2.50000000E-01
      vertex -6.50000036E-01  1.53080857E-17 -2.50000000E-01
      vertex -6.50000036E-01  4.00000006E-01 -2.50000000E-01
    endloop
  endfacet
  facet normal  1.00000000E+00 -0.00000000E+00  0.00000000E+00
    outer loop
      vertex -5.50000012E-01  1.53080857E-17  2.50000000E-01
      vertex -5.50000012E-01  1.53080857E-17 -2.50000000E-01
      vertex -5.50000012E-01  4.00000006E-01  2.50000000E-01
    endloop
  endfacet
  facet normal  1.00000000E+00  0.00000000E+00  0.00000000E+00
    outer loop
      vertex -5.50000012E-01  4.00000006E-01  2.50000000E-01
      vertex -5.50000012E-01  1.53080857E-17 -2.50000000E-01
      vertex -5.50000012E-01  4.00000006E-01 -2.50000000E-01
    endloop
  endfacet
  facet normal  0.00000000E+00  0.00000000E+00  1.00000000E+00
    outer loop
      vertex -6.50000036E-01  1.53080857E-17  2.50000000E-01
      vertex -5.50000012E-01  1.53080857E-17  2.50000000E-01
      vertex -6.50000036E-01  4.00000006E-01  2.50000000E-01
    endloop
  endfacet
  facet normal -0.00000000E+00  0.00000000E+00  1.00000000E+00
    outer loop
      vertex -6.50000036E-01  4.00000006E-01  2.50000000E-01
      vertex -5.50000012E-01  1.53080857E-17  2.50000000E-01
      vertex -5.50000012E-01  4.00000006E-01  2.50000000E-01
    endloop
  endfacet
  facet normal -1.00000000E+00  0.00000000E+00  0.00000000E+00
    outer loop
      vertex -6.50000036E-01  1.53080857E-17 -2.50000000E-01
      vertex -6.50000036E-01  1.53080857E-17  2.50000000E-01
      vertex -6.50000036E-01  4.00000006E-01 -2.50000000E-01
    endloop
  endfacet
  facet normal -1.00000000E+00  0.00000000E+00  0.00000000E+00
    outer loop
      vertex -6.50000036E-01  4.00000006E-01 -2.50000000E-01
      vertex -6.50000036E-01  1.53080857E-17  2.50000000E-01
      vertex -6.50000036E-01  4.00000006E-01  2.50000000E-01
    endloop
  endfacet
  facet normal  0.00000000E+00 -1.00000000E+00  0.00000000E+00
    outer loop
      vertex -6.50000036E-01  1.53080857E-17 -2.50000000E-01
      vertex -5.50000012E-01  1.53080857E-17 -2.50000000E-01
      vertex -5.50000012E-01  1.53080857E-17  2.50000000E-01
    endloop
  endfacet
  facet normal  0.00000000E+00 -1.00000000E+00  0.00000000E+00
    outer loop
      vertex -6.50000036E-01  1.53080857E-17 -2.50000000E-01
      vertex -5.50000012E-01  1.53080857E-17  2.50000000E-01
      vertex -6.50000036E-01  1.53080857E-17  2.50000000E-01
    endloop
  endfacet
  facet normal  0.00000000E+00  1.00000000E+00 -0.00000000E+00
    outer loop
      vertex -5.50000012E-01  4.00000006E-01 -2.50000000E-01
      vertex -6.50000036E-01  4.00000006E-01 -2.50000000E-01
      vertex -5.50000012E-01  4.00000006E-01  2.50000000E-01
    endloop
  endfacet
  facet normal  0.00000000E+00  1.00000000E+00  0.00000000E+00
    outer loop
      vertex -5.50000012E-01  4.00000006E-01  2.50000000E-01
      vertex -6.50000036E-01  4.00000006E-01 -2.50000000E-01
      vertex -6.50000036E-01  4.00000006E-01  2.50000000E-01
    endloop
  endfacet
endsolid  Processed by ADMesh version 0.98.1
